<?xml version="1.0" standalone="no"?>
<!DOCTYPE svg PUBLIC "-//W3C//DTD SVG 20010904//EN"
 "http://www.w3.org/TR/2001/REC-SVG-20010904/DTD/svg10.dtd">
<svg version="1.0" xmlns="http://www.w3.org/2000/svg"
 width="1000.000000pt" height="1056.000000pt" viewBox="0 0 1000.000000 1056.000000"
 preserveAspectRatio="xMidYMid meet">
<metadata>
Created by potrace 1.16, written by Peter Selinger 2001-2019
</metadata>
<g transform="translate(0.000000,1056.000000) scale(0.100000,-0.100000)"
fill="#000000" stroke="none">
<path d="M3165 10374 c-568 -101 -1078 -528 -1385 -1159 -187 -383 -272 -757
-272 -1185 1 -356 63 -665 198 -989 223 -530 733 -1129 1406 -1649 l146 -112
306 0 307 0 -129 153 c-734 873 -1111 1549 -1257 2252 -58 281 -71 637 -30
875 109 650 495 1279 1058 1729 l109 86 -39 7 c-66 12 -334 7 -418 -8z"/>
<path d="M7171 5156 c-392 -75 -642 -353 -680 -757 -36 -382 139 -718 452
-868 99 -48 178 -69 300 -80 260 -24 502 51 672 211 113 105 181 218 231 384
25 81 28 104 28 254 1 142 -2 177 -22 248 -83 307 -290 515 -587 593 -104 27
-292 34 -394 15z m309 -267 c74 -17 164 -67 223 -126 110 -110 159 -248 160
-453 0 -209 -47 -345 -157 -456 -101 -101 -213 -144 -376 -144 -196 0 -361 89
-448 242 -100 176 -110 472 -23 662 105 229 344 335 621 275z"/>
<path d="M130 4305 l0 -845 135 0 135 0 2 614 3 615 258 -485 c172 -321 269
-492 289 -509 25 -21 40 -25 93 -25 53 0 68 4 92 24 18 16 122 202 283 510
140 267 257 485 260 486 3 0 4 -277 2 -615 l-2 -615 135 0 135 0 0 845 0 845
-144 0 c-122 0 -147 -3 -165 -17 -21 -18 -446 -810 -546 -1018 l-53 -109 -44
94 c-85 181 -530 1005 -554 1028 -24 21 -34 22 -170 22 l-144 0 0 -845z"/>
<path d="M2290 4305 l0 -845 530 0 530 0 0 125 0 125 -375 0 -375 0 0 240 0
240 295 0 295 0 0 120 0 120 -295 0 -295 0 2 238 3 237 373 3 372 2 0 120 0
120 -530 0 -530 0 0 -845z"/>
<path d="M3620 4305 l0 -845 490 0 490 0 0 130 0 130 -335 0 -335 0 0 715 0
715 -155 0 -155 0 0 -845z"/>
<path d="M4820 4333 l1 -818 96 148 96 147 58 0 59 0 0 195 0 195 395 0 395 0
0 -370 0 -370 155 0 155 0 0 845 0 845 -155 0 -155 0 0 -365 0 -365 -395 0
-395 0 0 365 0 365 -155 0 -155 0 0 -817z"/>
<path d="M8440 4305 l0 -845 155 0 155 0 0 336 0 336 94 -4 c63 -2 101 -9 118
-20 13 -9 111 -149 217 -313 107 -163 205 -304 219 -313 35 -23 348 -33 339
-11 -3 8 -102 158 -220 335 -137 204 -229 331 -252 349 l-37 28 78 37 c189 89
286 241 286 450 1 219 -98 357 -307 433 -112 40 -191 47 -529 47 l-316 0 0
-845z m571 606 c190 -20 282 -105 283 -261 2 -122 -61 -224 -166 -271 -47 -21
-71 -24 -215 -27 l-163 -4 0 279 c0 154 3 283 7 286 9 10 153 8 254 -2z"/>
<path d="M4070 4904 c0 -131 2 -150 18 -160 33 -21 378 -211 485 -267 l107
-57 0 38 c0 36 -5 42 -117 132 -65 52 -202 178 -305 279 l-188 184 0 -149z"/>
</g>
</svg>
